<svg fill="currentColor" xmlns="http://www.w3.org/2000/svg" id="Icons" viewBox="0 0 60 60"><path d="M57,19H38.649a3.465,3.465,0,0,0-.672-3.978A3.53,3.53,0,0,0,35.5,14H17.889A6.973,6.973,0,0,0,20,9V7A7,7,0,0,0,6,7V9a6.976,6.976,0,0,0,2.285,5.158A10.008,10.008,0,0,0,0,24V35.5A3.5,3.5,0,0,0,5,38.66V55.3a4.608,4.608,0,0,0,4.26,4.7c.078,0,.156.006.233.006a4.481,4.481,0,0,0,3.11-1.242,4.86,4.86,0,0,0,.4-.43,4.86,4.86,0,0,0,.4.43,4.466,4.466,0,0,0,3.346,1.236A4.607,4.607,0,0,0,21,55.3V21h2.185A2.948,2.948,0,0,0,23,22V57a3,3,0,0,0,3,3H57a3,3,0,0,0,3-3V22A3,3,0,0,0,57,19ZM8,9V7A5,5,0,0,1,18,7V9A5,5,0,0,1,8,9Zm3.877,11h2.245l.868,6.682-2,1.313L11,26.67Zm-.6-4h3.438l-.5,2H11.781ZM20,19a1,1,0,0,0-1,1V55.3A2.642,2.642,0,0,1,16.641,58a2.417,2.417,0,0,1-1.865-.687A2.48,2.48,0,0,1,14,55.5V40a1,1,0,0,0-2,0V55.5A2.5,2.5,0,0,1,9.362,58,2.642,2.642,0,0,1,7,55.3V24a1,1,0,0,0-2,0V35.5a1.5,1.5,0,0,1-3,0V24a8.009,8.009,0,0,1,7.229-7.96l.755,3.018-.968,7.358A2.009,2.009,0,0,0,9.9,28.348l1.975,1.312a2.019,2.019,0,0,0,2.244,0L16.1,28.348a2.011,2.011,0,0,0,.885-1.94l-.967-7.351L16.78,16H35.5a1.509,1.509,0,0,1,1.062.437A1.5,1.5,0,0,1,35.5,19ZM58,57a1,1,0,0,1-1,1H26a1,1,0,0,1-1-1V22a1,1,0,0,1,1-1H57a1,1,0,0,1,1,1Z"></path><path d="M55,26H48a3,3,0,0,0-6,0H28a1,1,0,0,0,0,2H42a3,3,0,0,0,6,0h7a1,1,0,0,0,0-2Zm-9,2a1,1,0,0,1-2,0V26a1,1,0,0,1,2,0Z"></path><path d="M55,34H52a3,3,0,0,0-6,0H28a1,1,0,0,0,0,2H46a3,3,0,0,0,6,0h3a1,1,0,0,0,0-2Zm-5,2a1,1,0,0,1-2,0V34a1,1,0,0,1,2,0Z"></path><path d="M55,42H43a3,3,0,0,0-6,0H28a1,1,0,0,0,0,2h9a3,3,0,0,0,6,0H55a1,1,0,0,0,0-2ZM41,44a1,1,0,0,1-2,0V42a1,1,0,0,1,2,0Z"></path><path d="M55,50H37a3,3,0,0,0-6,0H28a1,1,0,0,0,0,2h3a3,3,0,0,0,6,0H55a1,1,0,0,0,0-2ZM35,52a1,1,0,0,1-2,0V50a1,1,0,0,1,2,0Z"></path></svg>