<svg fill="currentColor" xmlns="http://www.w3.org/2000/svg" id="Capa_1" enable-background="new 0 0 512 512" height="512" viewBox="0 0 512 512" width="512"><path d="m502 180c-5.523 0-10 4.477-10 10v20h-40v-40c16.542 0 30-13.458 30-30v-50c0-16.542-13.458-30-30-30h-96v-50c0-5.523-4.477-10-10-10h-60c-5.523 0-10 4.477-10 10v50h-40v-50c0-5.523-4.477-10-10-10h-60c-5.523 0-10 4.477-10 10v50h-70c-27.57 0-50 22.43-50 50v50c0 5.523 4.477 10 10 10h50v50c0 5.523 4.477 10 10 10h20v80c0 5.523 4.477 10 10 10s10-4.477 10-10v-20h20c5.523 0 10-4.477 10-10s-4.477-10-10-10h-20v-40h20c5.523 0 10-4.477 10-10v-50h136v196h-282c-16.542 0-30 13.458-30 30v40c0 5.523 4.477 10 10 10h56v56c0 5.522 4.477 10 10 10h45c5.523 0 10-4.478 10-10s-4.477-10-10-10h-35v-106h160v106h-35c-5.523 0-10 4.478-10 10s4.477 10 10 10h45c5.523 0 10-4.478 10-10v-56h206c5.523 0 10-4.477 10-10v-40c0-16.542-13.458-30-30-30v-76h40v20c0 5.523 4.477 10 10 10s10-4.477 10-10v-120c0-5.523-4.477-10-10-10zm-206-160h40v40h-40zm-120 0h40v40h-40zm-120 90c0-16.542 13.458-30 30-30h366c5.514 0 10 4.486 10 10v50c0 5.514-4.486 10-10 10h-396zm100 100h-40v-40h40zm-90 216h-46v-30c0-5.514 4.486-10 10-10h36zm396-30v30h-196v-40h186c5.514 0 10 4.486 10 10zm-130-30v-196h100v196zm120-96v-40h40v40z"></path><path d="m402 200h-40c-5.523 0-10 4.477-10 10v80c0 5.523 4.477 10 10 10h40c5.523 0 10-4.477 10-10v-80c0-5.523-4.477-10-10-10zm-10 20v20h-20v-20zm-20 60v-20h20v20z"></path><circle cx="166" cy="502" r="10"></circle></svg>