<svg fill="#d94350" xmlns="http://www.w3.org/2000/svg" height="512pt" viewBox="0 -39 512 512" width="512pt"><path d="m381.671875 255.550781c-1.632813-3.949219-5.71875-6.480469-9.988281-6.171875-4.164063.300782-7.78125 3.253906-8.929688 7.261719-1.160156 4.019531.394532 8.488281 3.804688 10.914063 3.382812 2.402343 7.957031 2.472656 11.417968.183593 3.957032-2.613281 5.496094-7.828125 3.695313-12.1875zm0 0"></path><path d="m350.667969 255.550781c-1.628907-3.949219-5.714844-6.480469-9.984375-6.171875-4.164063.300782-7.78125 3.257813-8.933594 7.261719-1.152344 4.011719.398438 8.488281 3.808594 10.914063 3.382812 2.402343 7.957031 2.472656 11.417968.183593 3.957032-2.613281 5.492188-7.828125 3.691407-12.1875zm0 0"></path><path d="m412.671875 255.550781c-1.632813-3.949219-5.714844-6.480469-9.988281-6.171875-4.160156.300782-7.777344 3.253906-8.929688 7.257813-1.160156 4.019531.394532 8.492187 3.808594 10.917969 3.382812 2.402343 7.957031 2.472656 11.417969.183593 3.957031-2.613281 5.492187-7.828125 3.691406-12.1875zm0 0"></path><path d="m245.6875 128.289062h-143.714844c-5.542968 0-10.039062 4.496094-10.039062 10.039063s4.496094 10.039063 10.039062 10.039063h143.714844c5.542969 0 10.039062-4.496094 10.039062-10.039063s-4.496093-10.039063-10.039062-10.039063zm0 0"></path><path d="m245.6875 178.246094h-143.714844c-5.542968 0-10.039062 4.496094-10.039062 10.039062 0 5.542969 4.496094 10.039063 10.039062 10.039063h143.714844c5.542969 0 10.039062-4.496094 10.039062-10.039063 0-5.542968-4.496093-10.039062-10.039062-10.039062zm0 0"></path><path d="m512 260.40625c0-30.796875-14.816406-59.609375-41.722656-81.128906-26.25-20.992188-61.019532-32.554688-97.902344-32.554688-7.324219 0-14.621094.46875-21.824219 1.386719.097657-1.945313.152344-3.894531.152344-5.851563 0-38.425781-18.53125-74.414062-52.1875-101.332031-32.996094-26.390625-76.734375-40.925781-123.164063-40.925781-46.425781 0-90.167968 14.535156-123.164062 40.925781-33.652344 26.917969-52.1875 62.90625-52.1875 101.332031 0 62.96875 50.617188 117.992188 124.089844 136.101563-.414063 37.957031-4.085938 70.023437-4.125 70.367187-.425782 3.671876 1.203125 7.28125 4.234375 9.394532 1.714843 1.191406 3.722656 1.800781 5.742187 1.800781 1.550782 0 3.105469-.359375 4.539063-1.085937 28.113281-14.253907 51.960937-39.945313 70.941406-76.40625 9.804687-1.375 19.402344-3.421876 28.699219-6.101563 3.894531 22.546875 16.023437 43.71875 34.984375 60.660156 20.648437 18.449219 48.28125 30.871094 78.292969 35.285157 15.007812 28.46875 33.839843 48.585937 56.035156 59.839843 1.433594.726563 2.988281 1.082031 4.539062 1.082031 2.019532 0 4.027344-.605468 5.742188-1.800781 3.03125-2.113281 4.660156-5.722656 4.234375-9.394531-.03125-.261719-2.785157-24.347656-3.195313-53.222656 57.660156-14.855469 97.246094-58.480469 97.246094-108.371094zm-314.257812 2.761719c-3.386719.386719-6.34375 2.460937-7.855469 5.511719-13.523438 27.253906-29.644531 48.011718-48.078125 61.949218 1.171875-14.972656 2.4375-36.722656 2.394531-60.304687-.007813-4.757813-3.359375-8.859375-8.019531-9.816407-68.363282-14.019531-116.105469-62.644531-116.105469-118.25 0-67.367187 69.65625-122.179687 155.273437-122.179687 85.621094 0 155.277344 54.8125 155.277344 122.179687 0 60.296876-57.128906 112.277344-132.886718 120.910157zm204.902343 87.808593c-4.664062.953126-8.011719 5.054688-8.023437 9.8125-.027344 16.085938.71875 31.089844 1.515625 42.480469-12.589844-10.621093-23.714844-25.589843-33.210938-44.726562-1.511719-3.050781-4.46875-5.128907-7.855469-5.515625-54.839843-6.25-96.332031-40.75-101.660156-83.328125 7.410156-2.992188 14.644532-6.453125 21.617188-10.359375 11.527344-6.457032 22.152344-14.046875 31.578125-22.667969 15.375-14.058594 27.921875-31.28125 35.644531-50.683594 2.21875-5.574219 4.046875-11.328125 5.40625-17.171875 8.105469-1.339844 16.390625-2.015625 24.71875-2.015625 65.917969 0 119.546875 41.992188 119.546875 93.605469 0 42.542969-36.710937 79.789062-89.277344 90.570312zm0 0"></path><path d="m101.972656 98.414062h103.480469c5.546875 0 10.039063-4.496093 10.039063-10.039062 0-5.546875-4.492188-10.039062-10.039063-10.039062h-103.480469c-5.542968 0-10.039062 4.492187-10.039062 10.039062 0 5.542969 4.496094 10.039062 10.039062 10.039062zm0 0"></path><path d="m254.957031 84.535156c-1.648437-3.949218-5.710937-6.484375-9.988281-6.175781-4.164062.304687-7.78125 3.246094-8.933594 7.253906-1.15625 4.035157.398438 8.476563 3.808594 10.917969 3.363281 2.40625 7.976562 2.480469 11.417969.1875 3.933593-2.613281 5.511719-7.828125 3.695312-12.183594zm0 0"></path></svg>